<svg xmlns="http://www.w3.org/2000/svg" width="11" height="11" viewBox="0 0 11 11"><g transform="translate(10.25 0.75) rotate(90)"><path d="M17.063,18.75H7.438a.753.753,0,0,1,0-1.5h9.625a.753.753,0,0,1,0,1.5Z" transform="translate(-7.5 -13.25)" fill="#56dac2"/><path d="M18,17.75a.784.784,0,0,1-.53-.2.648.648,0,0,1,0-.972l4.72-4.326L17.47,7.924a.648.648,0,0,1,0-.972.8.8,0,0,1,1.061,0l5.25,4.812a.648.648,0,0,1,0,.972l-5.25,4.813A.784.784,0,0,1,18,17.75Z" transform="translate(-13.75 -7.5)" fill="#56dac2"/></g></svg>